<?xml version="1.0" encoding="utf-8"?>
<!-- Generator: Adobe Illustrator 26.0.3, SVG Export Plug-In . SVG Version: 6.00 Build 0)  -->
<svg version="1.0" id="katman_1" xmlns="http://www.w3.org/2000/svg" xmlns:xlink="http://www.w3.org/1999/xlink" x="0px" y="0px"
	 viewBox="0 0 600 450" style="enable-background:new 0 0 600 450;" xml:space="preserve">
<style type="text/css">
	.st0{fill-rule:evenodd;clip-rule:evenodd;fill:#059C90;}
</style>
<g id="Symbols">
	<g id="Nav_x2F_Inactive">
		<g id="Header">
			<g id="Nav">
				<g id="Group" transform="translate(0.000000, 0.000000)">
					<path id="Fill-1" class="st0" d="M342.6,302.4h58.7v-62.2h-58.7V302.4z M401.1,225.1h-73.6v92.4h88.9V133.2h-15.3V225.1z
						 M127.5,317.6h76.8v-15.1h-61.7v-62.2h61.7v-15.1h-76.8V317.6z M236.2,302.4h59v-62.2h-59V302.4z M221.1,317.6h89.2v-92.4
						h-89.2V317.6z M448.6,261.2h55.1v-21h-55.1V261.2z M448.6,302.4v-26.1h70.2v-51.2h-85.3v92.4h86.2v-15.1H448.6L448.6,302.4z"/>
					<path id="Fill-2" class="st0" d="M367.4,197.9c0,5.9,3,8.7,6.6,8.7c4.9,0,7.7-4,7.7-10.8c0-4.6-2.3-8-6.7-8
						C370.5,187.8,367.4,191.6,367.4,197.9z M331.3,170c3.5-3.2,10.4-10.9,10.4-21.3c0-4.6-1.4-7.9-5.3-7.9c-4.7,0-5.1,4.1-5.1,16.6
						V170z M298.5,206.6c5.5,0,9-14,9-24.1c0-1.2,0.9-1.6,1.9-1.6c4.8,0,9.8-2.1,14.6-5.4v-16.9c0-19.3,4-25.2,12.3-25.2
						c8.1,0,12.7,5.3,12.7,15.4c0,13.6-12.9,26.3-17.8,30.5v5.6c2.2-2,5.7-4.5,9.8-4.5c6.2,0,9,3.4,9,14.7c0,9.3,1,11.5,4.4,11.5
						c2.4,0,4.4-2,6-4.5c-0.2-1.3-0.4-2.7-0.4-4.1c0-8.9,5.8-17.6,15.3-17.6c8.6,0,13.6,6.1,13.6,15.1c0,9.7-6.7,18.4-15.3,18.4
						c-4.6,0-8.3-2-10.6-5.4c-2.5,2.8-5.8,5.4-9.9,5.4c-7.3,0-10.4-4.7-10.4-17c0-7.2-0.9-9.2-3.1-9.2c-2.5,0-6.1,3.7-8.3,6.2v16.4
						c0,2.4-1.5,3.4-3.7,3.4c-2.2,0-3.7-1-3.7-3.4v-26.1c-2.7,1.8-6.3,3.5-9.4,3.9c-1.4,14.1-8.6,25.8-16.6,25.8
						c-5.2,0-7.9-4.6-9.3-8.6c-1.7,4-4.7,8.6-9.1,8.6c-12.6,0-11-23.9-13.2-23.9c-1.8,0-6.7,9.2-6.7,9.2c-0.8,1.5-2.7,1.8-4.3,1
						c-1.4-0.7-2.2-2-1.7-3.5c0,0,8.4-16.3,14.6-16.3c7.1,0,5,26.2,11.3,26.2c3.8,0,6.5-9.2,6.5-22c0-2.4,1.4-4.2,3.6-4.2
						s3.7,1.8,3.7,4.2C293.4,197.3,293.8,206.6,298.5,206.6z M193.2,184.6c3.8-5.9,11.7-19.4,11.7-32.3c0-8.8-1.8-11.8-5.5-11.8
						c-4.4,0-6.4,3.8-6.4,27.3C193,174.1,193.1,179.7,193.2,184.6z M136.2,166.3c0,2.5-2.4,5.3-5.3,5.3c-3,0-4.8-2.2-4.8-5
						c0-2.7,2.5-4.7,5.6-4.7C134.4,161.9,136.2,163.9,136.2,166.3z M97.9,263.3c4.3,0,6.5-4,6.5-16.5v-19.7
						c-4.2,5.4-12.4,17.2-12.5,27.1C91.9,260.6,93.9,263.3,97.9,263.3z M95.8,206.6c3.4,0,6.4-1.4,8.6-4.1v-10.3
						c-2.1-3.2-5.4-4.4-8.1-4.4c-5.4,0-8.4,3.8-8.4,9.5C87.9,203.4,90.9,206.6,95.8,206.6z M104.4,183.7c0.1-2.2,1.5-3.2,3.7-3.2
						c2.2,0,3.7,1,3.7,3.4v24.5c4.5-5.9,12.3-16,15.2-24.3c0.8-2.4,1.4-3.5,3.6-3.5c2.2,0,3.7,1.5,3.7,3.8v15.3c0,6.2,1.4,7,4,7
						c5,0,9.1-12.2,10.1-21.5c0.3-3,2.3-4.7,4.4-4.6l12.2,0.8c3.9,0.2,6.1,2.2,6.1,6.4v7.6c0,8.9,1.4,11.3,4.7,11.3
						c3.4,0,6.9-4.4,11.1-12.8c-0.8-7-1.1-16.4-1.1-29c0-24.2,5.3-31.6,13.6-31.6c8.3,0,13,7.7,13,17.9c0,18.3-15.3,39.7-18.3,43.7
						c0.9,7.7,2.8,11.8,6.3,11.8c4.8,0,12.2-13.2,16.9-21.2c2.5-4.4,3.1-4.9,4.5-4.9c9.1,0,17.6,7.9,17.6,17.4
						c0,9.5-7.8,18.3-19.9,16.1c-2.3-0.4-4.2-1.9-4.2-4.3c0.1-2.2,2.2-3.5,5.1-3.1c8.4,1.2,11.7-3.5,11.7-8.3
						c0-5.4-3.3-9.1-8.8-10.2c-12.8,22.4-17.2,25.8-23.5,25.8c-5.2,0-8.8-1.6-11.2-10.2c-3.4,5.7-7.8,10.2-13.5,10.2
						c-6.7,0-11.3-6-11.3-17v-8.5l-8.5-0.5c-1.8,12.7-9.3,26-17.5,26c-6.5,0-10.6-4-10.8-15.5c-4.4,7.2-10,13.3-15.2,20.2v26.8
						c0,17-6.3,25.1-14.2,25.1c-6.9,0-13-5.4-13-15.4c0-14.7,13.6-30.4,19.8-38.7v-6.1c-2.3,1.9-5.5,3.5-9.4,3.5
						c-7.4,0-14.5-6.6-14.5-16.3c0-8.7,7-17.1,15.6-17.1C99.6,180.5,102.4,181.8,104.4,183.7L104.4,183.7z"/>
				</g>
			</g>
		</g>
	</g>
</g>
</svg>
