<svg version="1.2" xmlns="http://www.w3.org/2000/svg" viewBox="0 0 1552 1550" width="1552" height="1550">
	<title>Prudential_Financial-svg</title>
	<style>
		.s0 { fill: #007ac1 } 
	</style>
	<g id="Layer">
		<path id="Layer" fill-rule="evenodd" class="s0" d="m1122.7 440.7l-345.4-200.9-126.6-22.7v92.6l97.2 90.5-135.6-11.5c0 0 4.4 6.9 117.2 126.6l515.1 85.8 90.2 58.8-234.6 11.2-97.1 354.6-318.6 212.5h-207.9l70.2-137.9-11.4-4.6-187.5 142.6h-45.1l191.9-269.1c9.1-76.7 4.5-42.8 15.9-180.7l-29.4-40.5-76.8 298-160.4 192.3h-40.7l94.8-133.4 133.3-408.8-33.9 15.7-58.8 162.7-40.6 22.5c0 0-94.8 230.4-144.5 343.1-72.2-103.5-153.6-243.6-153.6-487.7 0-366 314-752.1 786.1-752.1 454 0 695.9 361.4 736.4 548.8zm-341.3 1108.9c-191.9 0-426.8-67.6-596.2-275.5h1190.4c-137.9 178.5-374.9 275.5-594.2 275.5zm235-311.4h-108.5l201.4-250.9 20.2 38.4zm-230.4-1188.4c-442.6 0-731.8 363.8-731.8 702.5 0 194.5 47.4 291.4 99.4 384.2 65.5-176.1 196.5-526.5 196.5-526.5 0 0 61-31.5 61-26.9l88-223.6 56.6-29.4 70.1-149.1 153.4 24.9 311.8 173.8 350 97.2c-90.2-230.4-345.5-427.1-655-427.1zm560.2 919.4l-65.7 56.5-130.7 212.5h-86l86-151.7 67.6-56.2 97.5-273.3 103.5 42.9zm61.2 269h-173.9l164.7-259.9 49.7-169.5 103.9 36.2c-9.1 131-52 264-144.4 393.2zm-212.5-311.9l-52 9.2 13.8-104-13.8-20.4 13.8-117.5 133 54.3z"/>
	</g>
</svg>